{
    "asset" : {
        "generator" : "Khronos glTF Blender I/O v1.2.75",
        "version" : "2.0"
    },
    "scene" : 0,
    "scenes" : [
        {
            "name" : "Scene",
            "nodes" : [
                0,
                1,
                2,
                3,
                4,
                5
            ]
        }
    ],
    "nodes" : [
        {
            "mesh" : 0,
            "name" : "Sphere.001",
            "scale" : [
                1.7237212657928467,
                1.7237212657928467,
                1.7237212657928467
            ],
            "translation" : [
                0,
                1.0743763446807861,
                0
            ]
        },
        {
            "name" : "Lamp.002",
            "rotation" : [
                0.16907575726509094,
                0.7558803558349609,
                -0.27217137813568115,
                0.570947527885437
            ],
            "translation" : [
                -6.478848457336426,
                1.395139217376709,
                -0.43123340606689453
            ]
        },
        {
            "name" : "Lamp.001",
            "rotation" : [
                0.16907575726509094,
                0.7558803558349609,
                -0.27217137813568115,
                0.570947527885437
            ],
            "translation" : [
                2.51936674118042,
                5.903861999511719,
                -3.001349449157715
            ]
        },
        {
            "mesh" : 1,
            "name" : "Sphere",
            "scale" : [
                1.7237212657928467,
                1.7237212657928467,
                1.7237212657928467
            ],
            "translation" : [
                0,
                1.0743763446807861,
                0
            ]
        },
        {
            "name" : "Lamp",
            "rotation" : [
                0.16907575726509094,
                0.7558803558349609,
                -0.27217137813568115,
                0.570947527885437
            ],
            "translation" : [
                1.6744279861450195,
                5.903861999511719,
                3.674034833908081
            ]
        },
        {
            "name" : "Camera",
            "rotation" : [
                0.5189061760902405,
                0.32565730810165405,
                -0.22741277515888214,
                0.7569459080696106
            ],
            "translation" : [
                7.481131553649902,
                5.34366512298584,
                6.5076398849487305
            ]
        }
    ],
    "materials" : [
        {
            "doubleSided" : true,
            "emissiveFactor" : [
                0,
                0,
                0
            ],
            "name" : "Material.001",
            "pbrMetallicRoughness" : {
                "baseColorTexture" : {
                    "index" : 0,
                    "texCoord" : 0
                },
                "metallicFactor" : 0,
                "roughnessFactor" : 0.5
            }
        },
        {
            "doubleSided" : true,
            "emissiveFactor" : [
                0,
                0,
                0
            ],
            "name" : "\u6750\u8d28",
            "pbrMetallicRoughness" : {
                "baseColorTexture" : {
                    "index" : 1,
                    "texCoord" : 0
                },
                "metallicFactor" : 0,
                "roughnessFactor" : 0.5
            }
        },
        {
            "doubleSided" : true,
            "emissiveFactor" : [
                0,
                0,
                0
            ],
            "name" : "Material.004",
            "pbrMetallicRoughness" : {
                "baseColorTexture" : {
                    "index" : 2,
                    "texCoord" : 0
                },
                "metallicFactor" : 0,
                "roughnessFactor" : 0
            }
        }
    ],
    "meshes" : [
        {
            "name" : "Sphere.001",
            "primitives" : [
                {
                    "attributes" : {
                        "POSITION" : 0,
                        "NORMAL" : 1,
                        "TEXCOORD_0" : 2
                    },
                    "indices" : 3,
                    "material" : 0
                }
            ]
        },
        {
            "name" : "Sphere",
            "primitives" : [
                {
                    "attributes" : {
                        "POSITION" : 4,
                        "NORMAL" : 5,
                        "TEXCOORD_0" : 6
                    },
                    "indices" : 7,
                    "material" : 1
                },
                {
                    "attributes" : {
                        "POSITION" : 8,
                        "NORMAL" : 9,
                        "TEXCOORD_0" : 10
                    },
                    "indices" : 11,
                    "material" : 2
                }
            ]
        }
    ],
    "textures" : [
        {
            "source" : 0
        },
        {
            "source" : 1
        },
        {
            "source" : 0
        }
    ],
    "images" : [
        {
            "bufferView" : 4,
            "mimeType" : "image/jpeg",
            "name" : "Yayoyi-Kusama-PRAYING-FOR-WORLD-PEACE-IN-THE-SUNLIGHT-2016-1-"
        },
        {
            "bufferView" : 9,
            "mimeType" : "image/jpeg",
            "name" : "cut Yayoyi-Kusama-PRAYING-FOR-WORLD-PEACE-IN-THE-SUNLIGHT-2016-1-"
        }
    ],
    "accessors" : [
        {
            "bufferView" : 0,
            "componentType" : 5126,
            "count" : 242,
            "max" : [
                0.1774577498435974,
                1.2145354747772217,
                0.12086872011423111
            ],
            "min" : [
                -0.12904618680477142,
                0.623308539390564,
                -0.10144884884357452
            ],
            "type" : "VEC3"
        },
        {
            "bufferView" : 1,
            "componentType" : 5126,
            "count" : 242,
            "type" : "VEC3"
        },
        {
            "bufferView" : 2,
            "componentType" : 5126,
            "count" : 242,
            "type" : "VEC2"
        },
        {
            "bufferView" : 3,
            "componentType" : 5123,
            "count" : 432,
            "type" : "SCALAR"
        },
        {
            "bufferView" : 5,
            "componentType" : 5126,
            "count" : 268,
            "max" : [
                0.8453966379165649,
                0.7275785803794861,
                0.921239972114563
            ],
            "min" : [
                -0.9212402701377869,
                -0.5267204642295837,
                -0.921239972114563
            ],
            "type" : "VEC3"
        },
        {
            "bufferView" : 6,
            "componentType" : 5126,
            "count" : 268,
            "type" : "VEC3"
        },
        {
            "bufferView" : 7,
            "componentType" : 5126,
            "count" : 268,
            "type" : "VEC2"
        },
        {
            "bufferView" : 8,
            "componentType" : 5123,
            "count" : 954,
            "type" : "SCALAR"
        },
        {
            "bufferView" : 10,
            "componentType" : 5126,
            "count" : 198,
            "max" : [
                0.9212402701377869,
                0.7275785803794861,
                0.921239972114563
            ],
            "min" : [
                -0.4742600917816162,
                -0.46708887815475464,
                -0.921239972114563
            ],
            "type" : "VEC3"
        },
        {
            "bufferView" : 11,
            "componentType" : 5126,
            "count" : 198,
            "type" : "VEC3"
        },
        {
            "bufferView" : 12,
            "componentType" : 5126,
            "count" : 198,
            "type" : "VEC2"
        },
        {
            "bufferView" : 13,
            "componentType" : 5123,
            "count" : 630,
            "type" : "SCALAR"
        }
    ],
    "bufferViews" : [
        {
            "buffer" : 0,
            "byteLength" : 2904,
            "byteOffset" : 0
        },
        {
            "buffer" : 0,
            "byteLength" : 2904,
            "byteOffset" : 2904
        },
        {
            "buffer" : 0,
            "byteLength" : 1936,
            "byteOffset" : 5808
        },
        {
            "buffer" : 0,
            "byteLength" : 864,
            "byteOffset" : 7744
        },
        {
            "buffer" : 0,
            "byteLength" : 250586,
            "byteOffset" : 8608
        },
        {
            "buffer" : 0,
            "byteLength" : 3216,
            "byteOffset" : 259196
        },
        {
            "buffer" : 0,
            "byteLength" : 3216,
            "byteOffset" : 262412
        },
        {
            "buffer" : 0,
            "byteLength" : 2144,
            "byteOffset" : 265628
        },
        {
            "buffer" : 0,
            "byteLength" : 1908,
            "byteOffset" : 267772
        },
        {
            "buffer" : 0,
            "byteLength" : 157869,
            "byteOffset" : 269680
        },
        {
            "buffer" : 0,
            "byteLength" : 2376,
            "byteOffset" : 427552
        },
        {
            "buffer" : 0,
            "byteLength" : 2376,
            "byteOffset" : 429928
        },
        {
            "buffer" : 0,
            "byteLength" : 1584,
            "byteOffset" : 432304
        },
        {
            "buffer" : 0,
            "byteLength" : 1260,
            "byteOffset" : 433888
        }
    ],
    "buffers" : [
        {
            "byteLength" : 435148,
            "uri" : "data:application/octet-stream;base64,"
        }
    ]
}
