{
  "accessors": [
    {
      "bufferView": 2,
      "componentType": 5126,
      "count": 65532,
      "max": [
        2.7793939113616943,
        -9.3354129791259766,
        7.3048429489135742
      ],
      "min": [
        -1.9943763017654419,
        -22.010042190551758,
        -3.4661381244659424
      ],
      "type": "VEC3"
    },
    {
      "bufferView": 2,
      "byteOffset": 786384,
      "componentType": 5126,
      "count": 65532,
      "max": [
        0.99999338388442993,
        0.9999992847442627,
        0.9998360276222229
      ],
      "min": [
        -0.99999457597732544,
        -0.99999320507049561,
        -0.99999606609344482
      ],
      "type": "VEC3"
    },
    {
      "bufferView": 1,
      "componentType": 5126,
      "count": 65532,
      "max": [
        0.99973601102828979,
        0.88391101360321045
      ],
      "min": [
        0.00012199999764561653,
        0.00020999999833293259
      ],
      "type": "VEC2"
    },
    {
      "bufferView": 0,
      "componentType": 5125,
      "count": 302250,
      "max": [
        65531
      ],
      "min": [
        0
      ],
      "type": "SCALAR"
    },
    {
      "bufferView": 2,
      "byteOffset": 1572768,
      "componentType": 5126,
      "count": 65532,
      "max": [
        2.7840437889099121,
        -9.7176380157470703,
        6.862797737121582
      ],
      "min": [
        -1.7317203283309937,
        -22.053722381591797,
        -2.728585958480835
      ],
      "type": "VEC3"
    },
    {
      "bufferView": 2,
      "byteOffset": 2359152,
      "componentType": 5126,
      "count": 65532,
      "max": [
        0.99999994039535522,
        0.99995166063308716,
        0.99992108345031738
      ],
      "min": [
        -0.99999940395355225,
        -0.99999886751174927,
        -0.99995625019073486
      ],
      "type": "VEC3"
    },
    {
      "bufferView": 1,
      "byteOffset": 524256,
      "componentType": 5126,
      "count": 65532,
      "max": [
        0.99960702657699585,
        0.88415497541427612
      ],
      "min": [
        0.00012199999764561653,
        0.039073001593351364
      ],
      "type": "VEC2"
    },
    {
      "bufferView": 0,
      "byteOffset": 1209000,
      "componentType": 5125,
      "count": 273246,
      "max": [
        65531
      ],
      "min": [
        0
      ],
      "type": "SCALAR"
    },
    {
      "bufferView": 2,
      "byteOffset": 3145536,
      "componentType": 5126,
      "count": 65532,
      "max": [
        2.7943024635314941,
        -9.3354129791259766,
        8.4019565582275391
      ],
      "min": [
        -2.27115797996521,
        -20.273740768432617,
        -3.4121363162994385
      ],
      "type": "VEC3"
    },
    {
      "bufferView": 2,
      "byteOffset": 3931920,
      "componentType": 5126,
      "count": 65532,
      "max": [
        0.99999880790710449,
        0.99999302625656128,
        0.99997496604919434
      ],
      "min": [
        -0.99999988079071045,
        -0.99999839067459106,
        -0.99999403953552246
      ],
      "type": "VEC3"
    },
    {
      "bufferView": 1,
      "byteOffset": 1048512,
      "componentType": 5126,
      "count": 65532,
      "max": [
        0.99971997737884521,
        0.88415497541427612
      ],
      "min": [
        0.00012199999764561653,
        0.00036599999293684959
      ],
      "type": "VEC2"
    },
    {
      "bufferView": 0,
      "byteOffset": 2301984,
      "componentType": 5125,
      "count": 291801,
      "max": [
        65531
      ],
      "min": [
        0
      ],
      "type": "SCALAR"
    },
    {
      "bufferView": 2,
      "byteOffset": 4718304,
      "componentType": 5126,
      "count": 65532,
      "max": [
        2.7486975193023682,
        -9.3378047943115234,
        6.3788328170776367
      ],
      "min": [
        -2.2667536735534668,
        -21.923732757568359,
        -2.1103272438049316
      ],
      "type": "VEC3"
    },
    {
      "bufferView": 2,
      "byteOffset": 5504688,
      "componentType": 5126,
      "count": 65532,
      "max": [
        0.999977707862854,
        0.99988317489624023,
        0.99993139505386353
      ],
      "min": [
        -0.99999213218688965,
        -0.99999839067459106,
        -0.99998092651367188
      ],
      "type": "VEC3"
    },
    {
      "bufferView": 1,
      "byteOffset": 1572768,
      "componentType": 5126,
      "count": 65532,
      "max": [
        0.99979597330093384,
        0.88415497541427612
      ],
      "min": [
        0.00012199999764561653,
        0.0002390000008745119
      ],
      "type": "VEC2"
    },
    {
      "bufferView": 0,
      "byteOffset": 3469188,
      "componentType": 5125,
      "count": 253554,
      "max": [
        65531
      ],
      "min": [
        0
      ],
      "type": "SCALAR"
    },
    {
      "bufferView": 2,
      "byteOffset": 6291072,
      "componentType": 5126,
      "count": 65533,
      "max": [
        2.7473320960998535,
        -9.3354129791259766,
        8.4019565582275391
      ],
      "min": [
        -2.2323851585388184,
        -20.762969970703125,
        -1.9200189113616943
      ],
      "type": "VEC3"
    },
    {
      "bufferView": 2,
      "byteOffset": 7077468,
      "componentType": 5126,
      "count": 65533,
      "max": [
        0.9999890923500061,
        0.9999890923500061,
        0.99999678134918213
      ],
      "min": [
        -0.99999761581420898,
        -0.99999505281448364,
        -0.99999600648880005
      ],
      "type": "VEC3"
    },
    {
      "bufferView": 1,
      "byteOffset": 2097024,
      "componentType": 5126,
      "count": 65533,
      "max": [
        0.9997829794883728,
        0.88415497541427612
      ],
      "min": [
        0.00012199999764561653,
        0.00037900000461377203
      ],
      "type": "VEC2"
    },
    {
      "bufferView": 0,
      "byteOffset": 4483404,
      "componentType": 5125,
      "count": 273735,
      "max": [
        65532
      ],
      "min": [
        0
      ],
      "type": "SCALAR"
    },
    {
      "bufferView": 2,
      "byteOffset": 7863864,
      "componentType": 5126,
      "count": 65534,
      "max": [
        2.7884984016418457,
        -9.3354129791259766,
        8.3597345352172852
      ],
      "min": [
        -2.2085230350494385,
        -22.018331527709961,
        -3.4656398296356201
      ],
      "type": "VEC3"
    },
    {
      "bufferView": 2,
      "byteOffset": 8650272,
      "componentType": 5126,
      "count": 65534,
      "max": [
        0.99999290704727173,
        0.99999994039535522,
        0.99997812509536743
      ],
      "min": [
        -0.99999761581420898,
        -0.99963569641113281,
        -0.99996393918991089
      ],
      "type": "VEC3"
    },
    {
      "bufferView": 1,
      "byteOffset": 2621288,
      "componentType": 5126,
      "count": 65534,
      "max": [
        0.99978500604629517,
        0.88415497541427612
      ],
      "min": [
        0.00012199999764561653,
        0.0003800000122282654
      ],
      "type": "VEC2"
    },
    {
      "bufferView": 0,
      "byteOffset": 5578344,
      "componentType": 5125,
      "count": 246630,
      "max": [
        65533
      ],
      "min": [
        0
      ],
      "type": "SCALAR"
    },
    {
      "bufferView": 2,
      "byteOffset": 9436680,
      "componentType": 5126,
      "count": 19210,
      "max": [
        2.6421394348144531,
        -11.629386901855469,
        7.2408599853515625
      ],
      "min": [
        -1.0929851531982422,
        -22.620920181274414,
        -1.9872657060623169
      ],
      "type": "VEC3"
    },
    {
      "bufferView": 2,
      "byteOffset": 9667200,
      "componentType": 5126,
      "count": 19210,
      "max": [
        0.99989449977874756,
        0.99984800815582275,
        0.99973148107528687
      ],
      "min": [
        -0.99996733665466309,
        -0.9995465874671936,
        -0.99979668855667114
      ],
      "type": "VEC3"
    },
    {
      "bufferView": 1,
      "byteOffset": 3145560,
      "componentType": 5126,
      "count": 19210,
      "max": [
        0.99979102611541748,
        0.88415497541427612
      ],
      "min": [
        0.00012199999764561653,
        0.18551300466060638
      ],
      "type": "VEC2"
    },
    {
      "bufferView": 0,
      "byteOffset": 6564864,
      "componentType": 5125,
      "count": 67119,
      "max": [
        19209
      ],
      "min": [
        0
      ],
      "type": "SCALAR"
    },
    {
      "bufferView": 2,
      "byteOffset": 9897720,
      "componentType": 5126,
      "count": 24368,
      "max": [
        2.7932925224304199,
        -9.3354091644287109,
        8.3931789398193359
      ],
      "min": [
        -2.217059850692749,
        -9.3354997634887695,
        -3.463700532913208
      ],
      "type": "VEC3"
    },
    {
      "bufferView": 2,
      "byteOffset": 10190136,
      "componentType": 5126,
      "count": 24368,
      "max": [
        0.99997431039810181,
        1,
        0.99990582466125488
      ],
      "min": [
        -0.9999956488609314,
        -0.24448767304420471,
        -0.99996393918991089
      ],
      "type": "VEC3"
    },
    {
      "bufferView": 1,
      "byteOffset": 3299240,
      "componentType": 5126,
      "count": 24368,
      "max": [
        0,
        0
      ],
      "min": [
        0,
        0
      ],
      "type": "VEC2"
    },
    {
      "bufferView": 0,
      "byteOffset": 6833340,
      "componentType": 5125,
      "count": 141417,
      "max": [
        24367
      ],
      "min": [
        0
      ],
      "type": "SCALAR"
    }
  ],
  "asset": {
    "extras": {
      "author": "noe-3d.at (https://sketchfab.com/www.noe-3d.at)",
      "license": "CC0-1.0 (http://creativecommons.org/publicdomain/zero/1.0/)",
      "source": "https://sketchfab.com/3d-models/sphinx-d94a2dfbf413465395fde1bd17981b85",
      "title": "Sphinx"
    },
    "generator": "Sketchfab-8.60.0",
    "version": "2.0"
  },
  "bufferViews": [
    {
      "buffer": 0,
      "byteLength": 7399008,
      "byteOffset": 0,
      "name": "floatBufferViews",
      "target": 34963
    },
    {
      "buffer": 0,
      "byteLength": 3494184,
      "byteOffset": 7399008,
      "byteStride": 8,
      "name": "floatBufferViews",
      "target": 34962
    },
    {
      "buffer": 0,
      "byteLength": 10482552,
      "byteOffset": 10893192,
      "byteStride": 12,
      "name": "floatBufferViews",
      "target": 34962
    }
  ],
  "buffers": [
    {
      "byteLength": 21375744,
      "uri": "scene.bin"
    }
  ],
  "images": [
    {
      "uri": "textures/Sphinx2_Material_u1_v1_baseColor.png"
    }
  ],
  "materials": [
    {
      "doubleSided": true,
      "emissiveFactor": [
        0,
        0,
        0
      ],
      "name": "Sphinx2_Material_u1_v1",
      "pbrMetallicRoughness": {
        "baseColorFactor": [
          1,
          1,
          1,
          1
        ],
        "baseColorTexture": {
          "index": 0,
          "texCoord": 0
        },
        "metallicFactor": 0.070580150759735824,
        "roughnessFactor": 0.89191047189592809
      }
    }
  ],
  "meshes": [
    {
      "primitives": [
        {
          "attributes": {
            "NORMAL": 1,
            "POSITION": 0,
            "TEXCOORD_0": 2
          },
          "indices": 3,
          "material": 0,
          "mode": 4
        }
      ]
    },
    {
      "primitives": [
        {
          "attributes": {
            "NORMAL": 5,
            "POSITION": 4,
            "TEXCOORD_0": 6
          },
          "indices": 7,
          "material": 0,
          "mode": 4
        }
      ]
    },
    {
      "primitives": [
        {
          "attributes": {
            "NORMAL": 9,
            "POSITION": 8,
            "TEXCOORD_0": 10
          },
          "indices": 11,
          "material": 0,
          "mode": 4
        }
      ]
    },
    {
      "primitives": [
        {
          "attributes": {
            "NORMAL": 13,
            "POSITION": 12,
            "TEXCOORD_0": 14
          },
          "indices": 15,
          "material": 0,
          "mode": 4
        }
      ]
    },
    {
      "primitives": [
        {
          "attributes": {
            "NORMAL": 17,
            "POSITION": 16,
            "TEXCOORD_0": 18
          },
          "indices": 19,
          "material": 0,
          "mode": 4
        }
      ]
    },
    {
      "primitives": [
        {
          "attributes": {
            "NORMAL": 21,
            "POSITION": 20,
            "TEXCOORD_0": 22
          },
          "indices": 23,
          "material": 0,
          "mode": 4
        }
      ]
    },
    {
      "primitives": [
        {
          "attributes": {
            "NORMAL": 25,
            "POSITION": 24,
            "TEXCOORD_0": 26
          },
          "indices": 27,
          "material": 0,
          "mode": 4
        }
      ]
    },
    {
      "primitives": [
        {
          "attributes": {
            "NORMAL": 29,
            "POSITION": 28,
            "TEXCOORD_0": 30
          },
          "indices": 31,
          "material": 0,
          "mode": 4
        }
      ]
    }
  ],
  "nodes": [
    {
      "children": [
        1
      ],
      "name": "RootNode (gltf orientation matrix)",
      "rotation": [
        -0.70710678118654746,
        -0,
        -0,
        0.70710678118654757
      ]
    },
    {
      "children": [
        2
      ],
      "matrix": [
        -0.0025998246139332659,
        0.13827707981995552,
        1.2279569027472082e-05,
        0,
        9.9101458524566283e-05,
        1.4144997454743806e-05,
        -0.13830148856603586,
        0,
        -0.13827704684630326,
        -0.0025998150824869115,
        -9.9349847694553753e-05,
        0,
        2.7453982830047607,
        -16.191648483276367,
        -13.508498191833496,
        1
      ],
      "name": "RootNode (model correction matrix)"
    },
    {
      "children": [
        3,
        4,
        5,
        6,
        7,
        8,
        9,
        10
      ],
      "name": "Sphinx2_C.obj.cleaner.materialmerger.gles"
    },
    {
      "mesh": 0,
      "name": ""
    },
    {
      "mesh": 1,
      "name": ""
    },
    {
      "mesh": 2,
      "name": ""
    },
    {
      "mesh": 3,
      "name": ""
    },
    {
      "mesh": 4,
      "name": ""
    },
    {
      "mesh": 5,
      "name": ""
    },
    {
      "mesh": 6,
      "name": ""
    },
    {
      "mesh": 7,
      "name": ""
    }
  ],
  "samplers": [
    {
      "magFilter": 9729,
      "minFilter": 9987,
      "wrapS": 10497,
      "wrapT": 10497
    }
  ],
  "scene": 0,
  "scenes": [
    {
      "name": "OSG_Scene",
      "nodes": [
        0
      ]
    }
  ],
  "textures": [
    {
      "sampler": 0,
      "source": 0
    }
  ]
}

