{
  "accessors": [
    {
      "bufferView": 2,
      "componentType": 5126,
      "count": 65534,
      "max": [
        3.4108967781066895,
        -4.3908185958862305,
        2.9079675674438477
      ],
      "min": [
        -5.1905040740966797,
        -15.905998229980469,
        -4.1630010604858398
      ],
      "type": "VEC3"
    },
    {
      "bufferView": 2,
      "byteOffset": 786408,
      "componentType": 5126,
      "count": 65534,
      "max": [
        0.99999552965164185,
        0.99999856948852539,
        0.99999785423278809
      ],
      "min": [
        -0.99999845027923584,
        -0.9999430775642395,
        -0.99999934434890747
      ],
      "type": "VEC3"
    },
    {
      "bufferView": 1,
      "componentType": 5126,
      "count": 65534,
      "max": [
        0.99946999549865723,
        0.47277799248695374
      ],
      "min": [
        0.00012199999764561653,
        0.00022400000307243317
      ],
      "type": "VEC2"
    },
    {
      "bufferView": 0,
      "componentType": 5125,
      "count": 319704,
      "max": [
        65533
      ],
      "min": [
        0
      ],
      "type": "SCALAR"
    },
    {
      "bufferView": 2,
      "byteOffset": 1572816,
      "componentType": 5126,
      "count": 65532,
      "max": [
        3.9111852645874023,
        -4.3908185958862305,
        2.5824418067932129
      ],
      "min": [
        -3.6123957633972168,
        -25.167871475219727,
        -3.971832275390625
      ],
      "type": "VEC3"
    },
    {
      "bufferView": 2,
      "byteOffset": 2359200,
      "componentType": 5126,
      "count": 65532,
      "max": [
        0.9999886155128479,
        0.99990880489349365,
        0.99997729063034058
      ],
      "min": [
        -0.99998795986175537,
        -0.9974244236946106,
        -0.99999535083770752
      ],
      "type": "VEC3"
    },
    {
      "bufferView": 1,
      "byteOffset": 524272,
      "componentType": 5126,
      "count": 65532,
      "max": [
        0.99969899654388428,
        0.5455319881439209
      ],
      "min": [
        0.00012199999764561653,
        0.0026020000223070383
      ],
      "type": "VEC2"
    },
    {
      "bufferView": 0,
      "byteOffset": 1278816,
      "componentType": 5125,
      "count": 312468,
      "max": [
        65531
      ],
      "min": [
        0
      ],
      "type": "SCALAR"
    },
    {
      "bufferView": 2,
      "byteOffset": 3145584,
      "componentType": 5126,
      "count": 65532,
      "max": [
        3.8954195976257324,
        -4.3908185958862305,
        2.8303749561309814
      ],
      "min": [
        -5.2361273765563965,
        -26.282962799072266,
        -4.1346664428710938
      ],
      "type": "VEC3"
    },
    {
      "bufferView": 2,
      "byteOffset": 3931968,
      "componentType": 5126,
      "count": 65532,
      "max": [
        0.9999118447303772,
        0.99998962879180908,
        0.99997234344482422
      ],
      "min": [
        -0.99998939037322998,
        -0.99998635053634644,
        -0.99999362230300903
      ],
      "type": "VEC3"
    },
    {
      "bufferView": 1,
      "byteOffset": 1048528,
      "componentType": 5126,
      "count": 65532,
      "max": [
        0.99972301721572876,
        0.49198898673057556
      ],
      "min": [
        0.00012199999764561653,
        0.00021800000104121864
      ],
      "type": "VEC2"
    },
    {
      "bufferView": 0,
      "byteOffset": 2528688,
      "componentType": 5125,
      "count": 283200,
      "max": [
        65531
      ],
      "min": [
        0
      ],
      "type": "SCALAR"
    },
    {
      "bufferView": 2,
      "byteOffset": 4718352,
      "componentType": 5126,
      "count": 65532,
      "max": [
        3.9033279418945312,
        -7.416776180267334,
        2.1263120174407959
      ],
      "min": [
        -3.4659504890441895,
        -26.387641906738281,
        -3.710712194442749
      ],
      "type": "VEC3"
    },
    {
      "bufferView": 2,
      "byteOffset": 5504736,
      "componentType": 5126,
      "count": 65532,
      "max": [
        0.99999040365219116,
        0.99992817640304565,
        0.99998772144317627
      ],
      "min": [
        -0.99999493360519409,
        -0.99998635053634644,
        -0.999961256980896
      ],
      "type": "VEC3"
    },
    {
      "bufferView": 1,
      "byteOffset": 1572784,
      "componentType": 5126,
      "count": 65532,
      "max": [
        0.99974298477172852,
        0.51380598545074463
      ],
      "min": [
        0.00012199999764561653,
        0.00096500001382082701
      ],
      "type": "VEC2"
    },
    {
      "bufferView": 0,
      "byteOffset": 3661488,
      "componentType": 5125,
      "count": 277212,
      "max": [
        65531
      ],
      "min": [
        0
      ],
      "type": "SCALAR"
    },
    {
      "bufferView": 2,
      "byteOffset": 6291120,
      "componentType": 5126,
      "count": 65532,
      "max": [
        3.36234450340271,
        -4.3908185958862305,
        2.9226293563842773
      ],
      "min": [
        -4.6757478713989258,
        -25.111268997192383,
        -3.9925425052642822
      ],
      "type": "VEC3"
    },
    {
      "bufferView": 2,
      "byteOffset": 7077504,
      "componentType": 5126,
      "count": 65532,
      "max": [
        0.99999493360519409,
        0.99999845027923584,
        0.99999785423278809
      ],
      "min": [
        -0.99999356269836426,
        -0.99999141693115234,
        -0.99999040365219116
      ],
      "type": "VEC3"
    },
    {
      "bufferView": 1,
      "byteOffset": 2097040,
      "componentType": 5126,
      "count": 65532,
      "max": [
        0.99980098009109497,
        0.54092198610305786
      ],
      "min": [
        0.00012199999764561653,
        0.00022400000307243317
      ],
      "type": "VEC2"
    },
    {
      "bufferView": 0,
      "byteOffset": 4770336,
      "componentType": 5125,
      "count": 263592,
      "max": [
        65531
      ],
      "min": [
        0
      ],
      "type": "SCALAR"
    },
    {
      "bufferView": 2,
      "byteOffset": 7863888,
      "componentType": 5126,
      "count": 11824,
      "max": [
        2.6165964603424072,
        -7.2795910835266113,
        1.8280495405197144
      ],
      "min": [
        -2.7343320846557617,
        -11.580348014831543,
        -3.8088908195495605
      ],
      "type": "VEC3"
    },
    {
      "bufferView": 2,
      "byteOffset": 8005776,
      "componentType": 5126,
      "count": 11824,
      "max": [
        0.99999493360519409,
        0.78532832860946655,
        0.99998033046722412
      ],
      "min": [
        -0.99989014863967896,
        -0.98894459009170532,
        -0.99994319677352905
      ],
      "type": "VEC3"
    },
    {
      "bufferView": 1,
      "byteOffset": 2621296,
      "componentType": 5126,
      "count": 11824,
      "max": [
        0.99824798107147217,
        0.47277799248695374
      ],
      "min": [
        0.0025629999581724405,
        0.069728001952171326
      ],
      "type": "VEC2"
    },
    {
      "bufferView": 0,
      "byteOffset": 5824704,
      "componentType": 5125,
      "count": 34470,
      "max": [
        11823
      ],
      "min": [
        0
      ],
      "type": "SCALAR"
    },
    {
      "bufferView": 2,
      "byteOffset": 8147664,
      "componentType": 5126,
      "count": 15261,
      "max": [
        3.3718335628509521,
        -4.3908171653747559,
        2.7823209762573242
      ],
      "min": [
        -4.8932571411132812,
        -4.3908200263977051,
        -4.1189670562744141
      ],
      "type": "VEC3"
    },
    {
      "bufferView": 2,
      "byteOffset": 8330796,
      "componentType": 5126,
      "count": 15261,
      "max": [
        0.99975341558456421,
        1,
        0.99994552135467529
      ],
      "min": [
        -0.99974638223648071,
        -0.92758804559707642,
        -0.99992740154266357
      ],
      "type": "VEC3"
    },
    {
      "bufferView": 1,
      "byteOffset": 2715888,
      "componentType": 5126,
      "count": 15261,
      "max": [
        0,
        0
      ],
      "min": [
        0,
        0
      ],
      "type": "VEC2"
    },
    {
      "bufferView": 0,
      "byteOffset": 5962584,
      "componentType": 5125,
      "count": 87006,
      "max": [
        15260
      ],
      "min": [
        0
      ],
      "type": "SCALAR"
    }
  ],
  "asset": {
    "extras": {
      "author": "noe-3d.at (https://sketchfab.com/www.noe-3d.at)",
      "license": "CC0-1.0 (http://creativecommons.org/publicdomain/zero/1.0/)",
      "source": "https://sketchfab.com/3d-models/fruchttragerin-a2eb1e9d4b2c48a891d8286f5111c727",
      "title": "Fruchtträgerin"
    },
    "generator": "Sketchfab-8.60.0",
    "version": "2.0"
  },
  "bufferViews": [
    {
      "buffer": 0,
      "byteLength": 6310608,
      "byteOffset": 0,
      "name": "floatBufferViews",
      "target": 34963
    },
    {
      "buffer": 0,
      "byteLength": 2837976,
      "byteOffset": 6310608,
      "byteStride": 8,
      "name": "floatBufferViews",
      "target": 34962
    },
    {
      "buffer": 0,
      "byteLength": 8513928,
      "byteOffset": 9148584,
      "byteStride": 12,
      "name": "floatBufferViews",
      "target": 34962
    }
  ],
  "buffers": [
    {
      "byteLength": 17662512,
      "uri": "scene.bin"
    }
  ],
  "images": [
    {
      "uri": "textures/Fruchttraegerin_Material_u1_v1_baseColor.png"
    }
  ],
  "materials": [
    {
      "doubleSided": true,
      "emissiveFactor": [
        0,
        0,
        0
      ],
      "name": "Fruchttraegerin_Material_u1_v1",
      "pbrMetallicRoughness": {
        "baseColorFactor": [
          1,
          1,
          1,
          1
        ],
        "baseColorTexture": {
          "index": 0,
          "texCoord": 0
        },
        "metallicFactor": 0,
        "roughnessFactor": 1
      }
    }
  ],
  "meshes": [
    {
      "primitives": [
        {
          "attributes": {
            "NORMAL": 1,
            "POSITION": 0,
            "TEXCOORD_0": 2
          },
          "indices": 3,
          "material": 0,
          "mode": 4
        }
      ]
    },
    {
      "primitives": [
        {
          "attributes": {
            "NORMAL": 5,
            "POSITION": 4,
            "TEXCOORD_0": 6
          },
          "indices": 7,
          "material": 0,
          "mode": 4
        }
      ]
    },
    {
      "primitives": [
        {
          "attributes": {
            "NORMAL": 9,
            "POSITION": 8,
            "TEXCOORD_0": 10
          },
          "indices": 11,
          "material": 0,
          "mode": 4
        }
      ]
    },
    {
      "primitives": [
        {
          "attributes": {
            "NORMAL": 13,
            "POSITION": 12,
            "TEXCOORD_0": 14
          },
          "indices": 15,
          "material": 0,
          "mode": 4
        }
      ]
    },
    {
      "primitives": [
        {
          "attributes": {
            "NORMAL": 17,
            "POSITION": 16,
            "TEXCOORD_0": 18
          },
          "indices": 19,
          "material": 0,
          "mode": 4
        }
      ]
    },
    {
      "primitives": [
        {
          "attributes": {
            "NORMAL": 21,
            "POSITION": 20,
            "TEXCOORD_0": 22
          },
          "indices": 23,
          "material": 0,
          "mode": 4
        }
      ]
    },
    {
      "primitives": [
        {
          "attributes": {
            "NORMAL": 25,
            "POSITION": 24,
            "TEXCOORD_0": 26
          },
          "indices": 27,
          "material": 0,
          "mode": 4
        }
      ]
    }
  ],
  "nodes": [
    {
      "children": [
        1
      ],
      "name": "RootNode (gltf orientation matrix)",
      "rotation": [
        -0.70710678118654746,
        -0,
        -0,
        0.70710678118654757
      ]
    },
    {
      "children": [
        2
      ],
      "matrix": [
        -0.099400087494282197,
        -0.004146175401327945,
        0.00010327169583398965,
        0,
        -9.6712145103207761e-05,
        -0.00015940814681484824,
        -0.099486402564605392,
        0,
        0.0041463336545183305,
        -0.099400010406077044,
        0.00015523901376773147,
        0,
        -1.3133845329284668,
        -16.061092376708984,
        -16.007684707641602,
        1
      ],
      "name": "RootNode (model correction matrix)"
    },
    {
      "children": [
        3,
        4,
        5,
        6,
        7,
        8,
        9
      ],
      "name": "FruchttraegerinC.obj.cleaner.materialmerger.gles"
    },
    {
      "mesh": 0,
      "name": ""
    },
    {
      "mesh": 1,
      "name": ""
    },
    {
      "mesh": 2,
      "name": ""
    },
    {
      "mesh": 3,
      "name": ""
    },
    {
      "mesh": 4,
      "name": ""
    },
    {
      "mesh": 5,
      "name": ""
    },
    {
      "mesh": 6,
      "name": ""
    }
  ],
  "samplers": [
    {
      "magFilter": 9729,
      "minFilter": 9987,
      "wrapS": 10497,
      "wrapT": 10497
    }
  ],
  "scene": 0,
  "scenes": [
    {
      "name": "OSG_Scene",
      "nodes": [
        0
      ]
    }
  ],
  "textures": [
    {
      "sampler": 0,
      "source": 0
    }
  ]
}

